# xmcd
#
# Track frame offsets:
#	150
#	25609
#	47824
#	71966
#	95253
#	110188
#	139838
#	164760
#	182743
#	206804
#	232983
#	268910
#	297014
#
# Disc length: 4217 seconds
#
# Revision: 1
# Processed by: cddbd v1.5.2PL0 Copyright (c) Steve Scherf et al.
# Submitted via: audiograbber 1.83.01
#
DISCID=c910770d
DTITLE=Various Artist - Umbria Jazz - The Italian Way (1/2)
DYEAR=2006
DGENRE=Jazz
TTITLE0=Francesco Cafiso Quartet - Sir Charles
TTITLE1=Nicola Conte - Wanin' moon
TTITLE2=Enrico Rava and Paolo Fresu - Anthropology
TTITLE3=Stefano di Battista - Confirmation
TTITLE4=Stefano Bollani - Amore fermati
TTITLE5=Maurizio Giammarco - B Witch
TTITLE6=Sergio Commariere - My song
TTITLE7=Gianluca Petrella - Stockholm 64
TTITLE8=Maria Pia de Vito - Danilo Rea - Enzo Pietrapaoli - Aldo Romano - So ri
TTITLE8=ght
TTITLE9=Enrico Pieranunzi - Marc Johnson - Joey Baron - Sundays
TTITLE10=Roberto Gatto - Sing sing sing
TTITLE11=Amato Jazz Trio - Modern Jungle
TTITLE12=Cristina Zavalloni - Istinti languidi a riposo in attesa
EXTD=YEAR: 2006
EXTT0=
EXTT1=
EXTT2=
EXTT3=
EXTT4=
EXTT5=
EXTT6=
EXTT7=
EXTT8=
EXTT9=
EXTT10=
EXTT11=
EXTT12=
PLAYORDER=
